# xmcd
#
# Track frame offsets:
# 150
# 12506
# 26599
# 38233
# 55413
# 70711
# 86623
# 98197
# 115445
# 128908
# 147027
# 163391
# 175678
# 191192
# 204512
# 220545
# 237643
# 250588
# 264986
# 280564
#
# Disc length: 3895 seconds
#
#
# Revision: 0
# Processed by: cddbd v1.5.1PL2 Copyright (c) Steve Scherf et al.
# Submitted via: FreeRIP 2.941 
#
DISCID=200f3514
DTITLE=EDSON E HUDSON - AS 20 MAIS
DYEAR=2004
DGENRE=Country
TTITLE0=A FORÇA DA PAIXÃO
TTITLE1=AZUL
TTITLE2=CERVEJARIA
TTITLE3=CIDADÃ0
TTITLE4=DEIXA EU TE AMAR
TTITLE5=ENTRA NA ARENA
TTITLE6=FESTA LOUCA
TTITLE7=JURA
TTITLE8=ME BATE, ME XINGA
TTITLE9=MEU ANJO
TTITLE10=MIL RAZÕES PARA CHORAR
TTITLE11=MULHER, CERVEJA E VIOLA
TTITLE12=O BICHO VAI PEGAR
TTITLE13=PAGODE EM BRASILIA
TTITLE14=PORTA RETRATO
TTITLE15=SAUDADE
TTITLE16=TE DAR TRISTEZA NUNCA MAIS
TTITLE17=TE QUERO PRA MIM
TTITLE18=VOLTA
TTITLE19=ZOIÃO
EXTD=
EXTT0=
EXTT1=
EXTT2=
EXTT3=
EXTT4=
EXTT5=
EXTT6=
EXTT7=
EXTT8=
EXTT9=
EXTT10=
EXTT11=
EXTT12=
EXTT13=
EXTT14=
EXTT15=
EXTT16=
EXTT17=
EXTT18=
EXTT19=
PLAYORDER=
